<svg xmlns="http://www.w3.org/2000/svg" width="75" height="87"><path fill="#CCC83B" d="M62.755 29.103L37.669 14.89 12.554 28.77l-.032 29.832L.887 65.504.93 22.016 37.736 1.207l36.888 20.745z"/><path fill="#aaa62f" d="M23.505 66.229l14.339 7.06 24.981-15.314-.01-28.882 11.868-7.151-.023 42.814-36.908 21.482-14.294-7.357zM12.525 58.6l-.013 12.648L.888 65.51z"/><g fill="#aaa62f"><path d="M47.318 38.047l-15.781 9.311s2.284.67 3.654.834c.835.101 1.698.156 2.567.156 1.609 0 3.179-.177 4.651-.518 1.933-.446 3.692-1.17 5.174-2.139 2.256-1.482 3.581-3.37 3.792-5.364.034-.306-.134-.747-.356-.958-.517-.507-1.47-1.323-2.316-1.323h-1.385zm-3.149.009"/><path d="M48.815 47.558c-1.348.885-2.897 1.592-4.58 2.094-2.01.606-4.205.924-6.471.924-.162 0-.329 0-.49-.006-2.982-.059-5.828-.671-8.267-1.763l-5.602 3.297v.632c0 1.967 1.37 2.985 3.408 3.565 2.039.581 10.941 2.083 10.941 2.083s8.95-1.412 10.949-2.083c1.999-.67 3.408-2.239 3.408-3.565v-7.757c0-.307-.14-.351-.329-.106-.767.991-1.765 1.894-2.967 2.685zm0 0"/></g><path d="M36.216 34.813l1.573-.417 1.628.417c1.002 0 1.833.791 1.988 1.816h2.803c-.179-2.567-2.256-4.601-4.791-4.601l-1.539-.416-1.662.416c-2.535 0-4.612 2.034-4.79 4.601h2.801c.149-1.03.985-1.816 1.989-1.816zm11.201 3.209H26.869c-.847 0-1.799.807-2.317 1.314-.323.39-.384.657-.356.958.207 2 1.538 3.881 3.793 5.364 1 .654 3.515 1.701 3.515 1.701l15.913-9.337zm-18.36 10.751a16.202 16.202 0 0 1-2.293-1.25c-1.204-.791-2.2-1.694-2.981-2.691-.188-.245-.328-.2-.328.107v7.283l5.602-3.449zm19.807-1.249" fill="#CCC83B"/></svg>