<svg xmlns="http://www.w3.org/2000/svg" width="267.5" height="87" viewBox="0 0 267.5 87"><path d="M114.204 29.611c2.304 2.106 3.456 4.734 3.456 7.884 0 3.15-1.089 5.814-3.267 7.992-2.178 2.179-5.517 3.266-10.017 3.266h-6.804V63.98h-6.156V26.452h12.96c4.247 0 7.523 1.053 9.828 3.159zM97.572 43.948h6.804c2.34 0 4.085-.558 5.238-1.674 1.152-1.115 1.728-2.673 1.728-4.671s-.576-3.555-1.728-4.671c-1.153-1.116-2.898-1.674-5.238-1.674h-6.804v12.69zm32.129-9.72v5.184c1.908-3.78 4.878-5.67 8.91-5.67v6.372h-1.566c-2.412 0-4.238.613-5.48 1.836-1.242 1.225-1.863 3.348-1.863 6.372V63.98h-6.156V34.228h6.155zm27.513 30.239c-4.339 0-7.911-1.413-10.719-4.239-2.809-2.825-4.213-6.534-4.213-11.123 0-4.589 1.449-8.297 4.348-11.124 2.897-2.826 6.507-4.239 10.827-4.239 4.319 0 7.929 1.414 10.827 4.239 2.896 2.827 4.347 6.525 4.347 11.096 0 4.572-1.485 8.28-4.455 11.124s-6.624 4.266-10.962 4.266zm6.398-7.884c1.8-1.8 2.7-4.302 2.7-7.506 0-3.203-.873-5.696-2.619-7.478-1.746-1.782-3.86-2.673-6.345-2.673s-4.572.891-6.264 2.673c-1.692 1.782-2.538 4.284-2.538 7.505 0 3.222.827 5.724 2.483 7.505 1.656 1.782 3.717 2.673 6.184 2.673 2.466 0 4.6-.899 6.399-2.699zm15.119 7.397V24.022h6.156V63.98h-6.156zm21.276-37.636c0 1.117-.378 2.052-1.134 2.808s-1.683 1.134-2.781 1.134-2.024-.378-2.78-1.134-1.134-1.691-1.134-2.808c0-1.115.378-2.052 1.134-2.808.756-.756 1.683-1.134 2.78-1.134 1.099 0 2.025.378 2.781 1.134.756.756 1.134 1.693 1.134 2.808zm-7.02 37.636V34.228h6.156V63.98h-6.156zm21.222-31.858v2.106h17.118V63.98h-6.156V39.25h-10.962v24.73h-6.21V39.25h-3.51v-5.022h3.51v-2.106c0-3.42.909-5.913 2.728-7.479 1.817-1.566 4.671-2.349 8.559-2.349v5.13c-1.872 0-3.187.351-3.942 1.053-.757.702-1.135 1.917-1.135 3.645zm17.982-5.778c0 1.117-.378 2.052-1.135 2.808-.756.756-1.683 1.134-2.78 1.134-1.099 0-2.025-.378-2.781-1.134s-1.134-1.691-1.134-2.808c0-1.115.378-2.052 1.134-2.808.756-.756 1.683-1.134 2.781-1.134s2.024.378 2.78 1.134c.757.756 1.135 1.693 1.135 2.808zm9.234 33.911c-2.7-2.809-4.05-6.524-4.05-11.15 0-4.625 1.358-8.343 4.077-11.15 2.717-2.808 6.218-4.212 10.503-4.212 3.6 0 6.578.856 8.937 2.565 2.357 1.71 3.951 4.149 4.779 7.317h-6.642c-1.116-3.132-3.475-4.698-7.074-4.698-2.521 0-4.528.891-6.021 2.673-1.494 1.782-2.241 4.275-2.241 7.478 0 3.204.747 5.706 2.241 7.506 1.493 1.8 3.501 2.699 6.021 2.699 3.563 0 5.921-1.565 7.074-4.697h6.642c-.864 3.023-2.484 5.427-4.86 7.209-2.376 1.781-5.328 2.673-8.855 2.673-4.321-.001-7.831-1.405-10.531-4.213z" fill="#636363"/><path fill="#CCC83B" d="M62.755 29.103L37.669 14.89 12.554 28.77l-.032 29.832L.887 65.504.93 22.016 37.736 1.207l36.888 20.745z"/><path fill="#7f7d39" d="M23.505 66.229l14.339 7.06 24.981-15.314-.01-28.882 11.868-7.151-.023 42.814-36.908 21.482-14.294-7.357z"/><path fill="#aaa62f" d="M12.525 58.6l-.013 12.648L.888 65.51z"/><g fill="#aaa62f"><path d="M47.318 38.047l-15.781 9.311s2.284.67 3.654.834c.835.101 1.698.156 2.567.156 1.609 0 3.179-.177 4.651-.518 1.933-.446 3.692-1.17 5.174-2.139 2.256-1.482 3.581-3.37 3.792-5.364.034-.306-.134-.747-.356-.958-.517-.507-1.47-1.323-2.316-1.323h-1.385zm-3.149.009"/><path d="M48.815 47.558c-1.348.885-2.897 1.592-4.58 2.094-2.01.606-4.205.924-6.471.924-.162 0-.329 0-.49-.006-2.982-.059-5.828-.671-8.267-1.763l-5.602 3.297v.632c0 1.967 1.37 2.985 3.408 3.565 2.039.581 10.941 2.083 10.941 2.083s8.95-1.412 10.949-2.083c1.999-.67 3.408-2.239 3.408-3.565v-7.757c0-.307-.14-.351-.329-.106-.767.991-1.765 1.894-2.967 2.685zm0 0"/></g><path d="M36.216 34.813l1.573-.417 1.628.417c1.002 0 1.833.791 1.988 1.816h2.803c-.179-2.567-2.256-4.601-4.791-4.601l-1.539-.416-1.662.416c-2.535 0-4.612 2.034-4.79 4.601h2.801c.149-1.03.985-1.816 1.989-1.816zm11.201 3.209H26.869c-.847 0-1.799.807-2.317 1.314-.323.39-.384.657-.356.958.207 2 1.538 3.881 3.793 5.364 1 .654 3.515 1.701 3.515 1.701l15.913-9.337zm-18.36 10.751a16.202 16.202 0 0 1-2.293-1.25c-1.204-.791-2.2-1.694-2.981-2.691-.188-.245-.328-.2-.328.107v7.283l5.602-3.449zm19.807-1.249" fill="#CCC83B"/></svg>